<svg xmlns="http://www.w3.org/2000/svg" viewBox="0 0 1021.6 952.7">
  <defs><style>.st0{fill:#ffffff;}</style></defs>
  <path class="st0" d="M804.5,243.1c-.2-.1-.5,0-.7.3-13.6,17.1-99.3,124.7-257.1,322.7-1.3,1.6-2.6,3.6-4.2,5.5-36.7,43.9-67.7,81.2-93.1,111.9-5.7,6.8-12.3,10.1-21.2,7.8-2.5-.6-6.5-3.3-12-8.1-2.8-2.4-8.8-7.4-17.9-14.9-3.7-3.1-6.1-5.3-7-6.9-4.5-7.2-4.2-15.7,1.2-22.2,23.1-27.8,46.8-56.4,71.3-85.9.3-.4.3-1,0-1.4L217.4,243.1c-.1-.1-.3-.2-.5,0,0,0-.1.2-.1.3,0,133.3,0,337.2,0,611.5,0,8.5-1.6,17.2-11,19.8-3.1.9-6.2,1.3-9.1,1.3-14.3,0-25.3,0-33,0-4.4,0-8.3-.8-11.9-2.4-7.4-3.3-8.2-12.4-8.2-19.5,0-15.7,0-264.4,0-746,0-8.4,1.4-21.4,7.2-26.8,7.4-6.9,19.7-5.5,27.4.2,2.9,2.2,5.9,4.9,9.1,8.2,5.8,6.2,11.7,12.9,17.5,20.2,5.4,6.7,107.8,135.7,307.4,386.9.3.3.8.4,1.1.1,0,0,0,0,.1-.1,117.7-150.3,217.5-277.8,299.5-382.6,6.5-8.2,12.3-15,19.9-23.4,7.2-8,15-14.8,26.3-14.2,18.6,1,18.6,23.3,18.6,36.6v736.8c0,2.9-.1,5.6-.3,8.2-.4,4.7-.6,7.4-.6,8.2,0,3,0,6,.1,8.9,0,.4-.3.7-.7.7,0,0,0,0,0,0-172.1,0-260.8,0-266.2,0-6.5,0-10.9-.4-13.4-1.4-6-2.5-9.8-7.3-11.4-14.4,0-.4-.1-.8-.1-1.2,0-7.3,0-19.4,0-36.3,0-10.6,8.3-18.7,18.8-18.7,14.5,0,81,0,199.6,0,.4,0,.8-.4.8-.8V243.4c0,0,0-.2-.1-.2Z"/>
  <rect class="st0" x="864.7" y="829.4" width="13.2" height="46.6"/>
</svg>